# File generated by ImageToStl.com - Free Image and 3D model conversion tools

mtllib retroarc_sketchfab_NEW.mtl

# pirate_0
o obj1
v -55.1630497 307.5283888 75.02157446
v -6.02E-06 419.59687266 60.54090578
v -103.65309715 418.63775253 0.00989471
v -3.26E-06 467.97322612 -37.74791534
v 103.65307331 418.63775253 0.00989471
v 8E-08 318.3473223 69.21737968
v 55.16306162 307.52843649 75.02157446
v -113.4347558 353.24773831 2.61337962
v -82.31167197 345.24205008 17.01270678
v -91.16029739 336.73920351 -17.2308785
v 86.33259535 331.02310431 -101.69554381
v -2.68E-06 342.97893414 -123.8489829
v -86.33261919 331.023152 -101.69554381
v 113.43473196 353.24773831 2.61336174
v 82.28741884 239.17616665 -69.53829847
v 91.16029739 336.73920351 -17.23089042
v 82.31167197 345.24205008 17.0127038
v 93.29882264 283.98796398 77.96503447
v 122.18567133 233.63701432 -53.07636491
v -93.29882264 283.98796398 77.96503447
v 164.39825296 280.69184068 14.85526757
v -164.39825296 280.691793 14.85528843
v -86.26607656 310.40201138 -2.9921039
v -122.18567133 233.63696664 -53.07635299
v 86.26608849 310.40205907 -2.99211582
v -82.28741884 239.17611897 -69.53826271
v 8E-08 233.81546644 -78.80360121
v -5.75E-06 283.09324521 -101.29933201
v 7.07106292 99.03916746 -107.92092506
v -6.71E-06 91.9680956 -107.92092391
v -6.91E-06 89.23518672 -108.87594485
v 9.87554938 99.11074653 -108.87594646
v -7.07107484 99.0391615 -107.92092506
v -9.87556204 99.11074057 -108.87594646
v -5.59E-06 106.11023337 -107.92092622
v -5.4E-06 108.98631229 -108.87594807
v 9.38645825 99.11074611 -111.41432946
v -5.6E-06 108.49723193 -111.41434291
v -6.92E-06 89.72427818 -111.41433986
v -9.38647017 99.11074611 -111.41434138
v -7.38459155 99.11074549 -115.26785319
v -5.5E-06 106.49533778 -115.2678544
v -6.15E-06 99.11074481 -119.42602819
v 7.38457888 99.11074549 -115.26785319
v -6.6E-06 91.72615915 -115.26785199
v -6.21E-06 97.10679426 -123.50606116
v -5.9E-06 101.24050751 -123.50606184
v -5.89E-06 101.1776025 -112.84332732
v -6.2E-06 97.04388926 -112.84332664
v -6.21E-06 87.32349499 -132.69149296
v -5.9E-06 91.45721419 -132.69149363
v -6.2E-06 98.44085001 -144.92047245
v -5.89E-06 98.27590079 -140.79003743
v -6.21E-06 104.85868556 -140.06795207
v -5.9E-06 107.19826457 -131.86766464
v 40.9466058 247.05125184 78.71239929
v 8.03541392 289.34949586 70.04737908
v -1.09079201 235.19958537 90.29561026
v 34.7717613 202.98372593 78.44155104
v 81.27413392 225.7528401 58.8868429
v 77.15662122 282.08051712 60.41256362
v 94.46566701 257.59018042 35.26011979
v 94.63798404 255.51727616 49.0024061
v 88.21001649 246.2581489 57.01380532
v 91.74717665 246.94090405 31.64530844
v 77.03474164 257.73137644 63.1304023
v 77.24713683 246.31401124 62.36033003
v -0.92048757 252.82734821 84.74707657
v 2.31088921 251.50832129 84.89160016
v 7.4735254 274.61529918 69.96122297
v -0.27318001 276.48097225 69.97213032
v -66.84666276 292.98218259 59.07948608
v -56.54982924 312.281024 70.39904871
v -27.99230814 165.15542759 30.12140087
v -37.61418164 138.68022578 37.61415904
v 17.64594913 165.15542624 21.8056663
v 16.74216539 165.15541996 -16.74219229
v 10.55272147 179.94292803 -10.55275079
v 11.1459136 179.94293192 13.35045893
v -12.81152666 179.94293183 12.81149734
v -19.67657208 165.15541981 -17.64597603
v -13.35048825 179.94292793 -11.14594366
v 12.47860268 170.50673758 -12.47863642
v 20.96836716 163.66431371 -20.96839978
v 26.58179998 173.27076 -12.08759389
v 36.05623245 169.95412716 -36.0562661
v 17.36209542 182.23491624 -17.36213107
v 17.36209542 182.23491624 -17.36213107
v 12.08755672 173.27075764 -26.58183715
v 17.36209542 182.23491624 -17.36213107
v 17.84908623 168.76626916 -17.84911968
v 11.19251475 161.42917689 -11.19254701
v 23.41366708 160.11404814 -10.89534388
v 16.47708714 151.36699408 -16.47711776
v 30.77334166 143.91183352 -30.77337106
v 30.77334166 143.91183352 -30.77337106
v 10.89531034 160.1140461 -23.41370211
v 30.77334166 143.91183352 -30.77337106
vn -0.11225 -0.82488 -0.55405
vn 0 -0.80568 0.59235
vn -0.8444 -0.10563 0.5252
vn 0 0.28243 0.95929
vn 0.8444 -0.10563 0.5252
vn 0 -0.76228 -0.64725
vn 0.11225 -0.82488 -0.55405
vn -0.393 0.10172 0.9139
vn -0.79967 -0.44592 0.40209
vn -0.52316 0.44516 0.72673
vn 0.7164 0.69375 0.07404
vn 0 0.98326 0.18223
vn -0.7164 0.69375 0.07404
vn 0.393 0.10172 0.9139
vn 0.45195 0.21134 -0.86664
vn 0.52316 0.44516 0.72673
vn 0.79967 -0.44592 0.40209
vn 0.05069 -0.84514 -0.53213
vn 0.41895 0.37262 -0.82803
vn -0.05069 -0.84514 -0.53213
vn 0.90717 -0.18015 -0.38024
vn -0.90717 -0.18015 -0.38024
vn 0.25056 -0.32698 -0.91121
vn -0.41897 0.37261 -0.82802
vn -0.25056 -0.32698 -0.91121
vn -0.45195 0.21134 -0.86664
vn 0 0.21528 -0.97655
vn 0 0.92983 -0.368
vn 0.32256 -0.9465 -0.00989
vn 0 -0.94402 -0.32988
vn 0 -0.40298 -0.91521
vn 0.91407 -0.40556 0.00125
vn -0.32256 -0.9465 -0.00989
vn -0.91407 -0.40556 0.00125
vn 0 -0.94905 0.31514
vn 0 -0.40801 0.91298
vn 0.95078 0.30986 0
vn 0 0.30986 0.95078
vn 0 0.30986 -0.95078
vn -0.95078 0.30986 0
vn -0.77273 0.63473 0
vn 0 0.63473 0.77273
vn 0 1 0
vn 0.77273 0.63473 0
vn 0 0.63473 -0.77273
vn 1 0 -0
vn 1 -0 -0
vn 1 0 -0
vn 1 0 0
vn -1 -0 0
vn -1 0 0
vn -1 -0 0
vn -1 -0 -0
vn 0.29436 -0.9482 0.11945
vn 0.16505 -0.93308 0.31957
vn 0.22318 -0.9632 0.14976
vn 0.34688 -0.93633 -0.05435
vn 0.43071 -0.90217 -0.0242
vn 0.31633 -0.93483 0.16135
vn 0.91169 -0.04968 -0.40786
vn 0.91107 -0.28667 -0.29625
vn 0.73453 -0.67795 -0.02899
vn 0.56577 -0.81639 0.11582
vn 0.04926 -0.91819 0.39305
vn 0.14011 -0.84355 0.51846
vn -0.0221 -0.9574 0.28792
vn -0.13306 -0.98463 0.1131
vn -0.56644 -0.61128 0.55271
vn -0.57659 -0.54119 -0.61209
vn 0.81227 -0.57166 -0.11588
vn 0.68137 0.6807 -0.26903
vn 0.60919 0.6083 0.50878
vn 0.63479 -0.44338 0.63281
vn -0.48302 -0.41903 0.76883
vn -0.55871 0.81806 -0.13645
vn -0.49896 0.62724 0.598
vn -0.68259 -0.68259 -0.26103
vn -0.04752 -0.04752 -0.99774
vn 0.6026 -0.79606 0.05631
vn 0.70398 0.70398 -0.09397
vn -0.21019 -0.21019 0.9548
vn -0.79606 0.6026 0.05631
vn 0.09305 0.09305 0.9913
vn -0.70027 -0.70027 0.13871
vn 0.62105 -0.77413 0.12257
vn -0.3909 -0.3909 -0.83331
vn 0.55768 0.55768 -0.61481
vn -0.77413 0.62105 0.12257
vt 0.42249 0.8253
vt 0.45862 0.88171
vt 0.40015 0.89524
vt 0.45862 0.93051
vt 0.51708 0.89524
vt 0.45862 0.8253
vt 0.49475 0.8253
vt 0.39049 0.85727
vt 0.41415 0.84904
vt 0.40021 0.86453
vt 0.50731 0.87178
vt 0.45862 0.88335
vt 0.40992 0.87178
vt 0.52674 0.85727
vt 0.49513 0.81498
vt 0.51703 0.86453
vt 0.50309 0.84904
vt 0.52753 0.82533
vt 0.52753 0.80818
vt 0.3897 0.82533
vt 0.55134 0.81769
vt 0.36589 0.81769
vt 0.42249 0.8408
vt 0.3897 0.80818
vt 0.49475 0.8408
vt 0.4221 0.81498
vt 0.45862 0.81425
vt 0.45862 0.84594
vt 0.7507 0.98639
vt 0.7507 0.987
vt 0.75068 0.98709
vt 0.75068 0.98639
vt 0.7507 0.98578
vt 0.75068 0.98568
vt 0.7505 0.98639
vt 0.7505 0.98571
vt 0.7505 0.98706
vt 0.75022 0.98639
vt 0.75022 0.98586
vt 0.74993 0.98639
vt 0.75022 0.98692
vt 0.74963 0.98653
vt 0.74963 0.98623
vt 0.7504 0.98624
vt 0.7504 0.98653
vt 0.74898 0.98723
vt 0.74898 0.98694
vt 0.7481 0.98643
vt 0.7484 0.98645
vt 0.74845 0.98597
vt 0.74903 0.98581
vt 0.77381 0.97996
vt 0.759 0.99616
vt 0.75476 0.97377
vt 0.77381 0.95994
vt 0.79285 0.97377
vt 0.78862 0.99616
vt 0.79243 0.97691
vt 0.7714 0.97573
vt 0.76814 0.96148
vt 0.79499 0.96207
vt 0.75352 0.97691
vt 0.7527 0.96187
vt 0.79147 0.96375
vt 0.79344 0.96432
vt 0.78913 0.97386
vt 0.78562 0.9726
vt 0.75249 0.96375
vt 0.75781 0.97284
vt 0.46097 0.88267
vt 0.46097 0.81576
vt 0.52767 0.88267
vt 0.46097 0.92004
vt 0.50475 0.92004
vt 0.39428 0.88267
vt 0.4172 0.92004
usemtl mat0
f 1/1/1 2/2/2 3/3/3
f 4/4/4 2/2/2 5/5/5
f 2/2/2 6/6/6 7/7/7
f 3/3/3 2/2/2 4/4/4
f 5/5/5 2/2/2 7/7/7
f 8/8/8 9/9/9 10/10/10
f 11/11/11 12/12/12 4/4/4
f 4/4/4 5/5/5 11/11/11
f 12/12/12 13/13/13 3/3/3
f 3/3/3 4/4/4 12/12/12
f 14/14/14 15/15/15 16/16/16
f 9/9/9 1/1/1 3/3/3
f 3/3/3 13/13/13 9/9/9
f 11/11/11 5/5/5 17/17/17
f 5/5/5 7/7/7 17/17/17
f 17/17/17 18/18/18 14/14/14
f 15/15/15 14/14/14 19/19/19
f 9/9/9 20/20/20 1/1/1
f 14/14/14 18/18/18 21/21/21
f 8/8/8 22/22/22 20/20/20
f 23/23/23 22/22/22 24/24/24
f 25/25/25 19/19/19 21/21/21
f 24/24/24 26/26/26 23/23/23
f 23/23/23 1/1/1 20/20/20
f 18/18/18 7/7/7 25/25/25
f 25/25/25 15/15/15 19/19/19
f 6/6/6 23/23/23 25/25/25
f 23/23/23 26/26/26 27/27/27
f 11/11/11 15/15/15 28/28/28
f 13/13/13 12/12/12 28/28/28
f 27/27/27 28/28/28 15/15/15
f 12/12/12 11/11/11 28/28/28
f 26/26/26 13/13/13 28/28/28
f 8/8/8 24/24/24 22/22/22
f 21/21/21 18/18/18 25/25/25
f 21/21/21 19/19/19 14/14/14
f 23/23/23 20/20/20 22/22/22
f 26/26/26 24/24/24 8/8/8
f 15/15/15 25/25/25 27/27/27
f 25/25/25 23/23/23 27/27/27
f 27/27/27 26/26/26 28/28/28
f 17/17/17 7/7/7 18/18/18
f 9/9/9 8/8/8 20/20/20
f 2/2/2 1/1/1 6/6/6
f 25/25/25 7/7/7 6/6/6
f 6/6/6 1/1/1 23/23/23
f 29/29/29 30/30/30 31/31/31
f 31/31/31 32/32/32 29/29/29
f 30/30/30 33/29/33 34/32/34
f 34/32/34 31/31/31 30/30/30
f 35/33/35 29/29/29 32/32/32
f 32/32/32 36/34/36 35/33/35
f 36/34/36 32/32/32 37/35/37
f 37/35/37 38/36/38 36/34/36
f 32/32/32 31/31/31 39/37/39
f 39/37/39 37/35/37 32/32/32
f 38/36/38 40/35/40 34/32/34
f 34/32/34 36/34/36 38/36/38
f 41/38/41 42/39/42 43/40/43
f 44/38/44 45/41/45 43/40/43
f 42/39/42 44/38/44 43/40/43
f 45/41/45 41/38/41 43/40/43
f 33/29/33 35/33/35 36/34/36
f 36/34/36 34/32/34 33/29/33
f 40/35/40 38/36/38 42/39/42
f 42/39/42 41/38/41 40/35/40
f 37/35/37 39/37/39 45/41/45
f 45/41/45 44/38/44 37/35/37
f 38/36/38 37/35/37 44/38/44
f 44/38/44 42/39/42 38/36/38
f 39/37/39 40/35/40 41/38/41
f 41/38/41 45/41/45 39/37/39
f 40/35/40 39/37/39 31/31/31
f 31/31/31 34/32/34 40/35/40
f 46/42/46 47/43/46 48/44/46
f 48/44/46 49/45/46 46/42/46
f 50/46/47 51/47/47 47/43/47
f 47/43/47 46/42/47 50/46/47
f 52/48/48 53/49/48 51/47/48
f 51/47/48 50/46/48 52/48/48
f 54/50/49 55/51/49 53/49/49
f 53/49/49 52/48/49 54/50/49
f 46/42/50 49/45/50 48/44/50
f 48/44/50 47/43/50 46/42/50
f 50/46/51 46/42/51 47/43/51
f 47/43/51 51/47/51 50/46/51
f 52/48/52 50/46/52 51/47/52
f 51/47/52 53/49/52 52/48/52
f 54/50/53 52/48/53 53/49/53
f 53/49/53 55/51/53 54/50/53
f 56/52/54 57/53/55 58/54/56
f 56/52/54 58/54/56 59/55/57
f 56/52/54 59/55/57 60/56/58
f 56/52/54 60/56/58 61/57/59
f 56/52/54 61/57/59 57/53/55
f 62/58/60 63/59/61 64/60/62
f 64/60/62 65/61/60 62/58/60
f 63/59/61 66/62/63 67/63/63
f 67/63/63 64/60/62 63/59/61
f 68/64/64 69/65/65 70/66/65
f 70/66/65 71/67/66 68/64/64
f 72/68/67 68/64/64 71/67/66
f 71/67/66 73/69/67 72/68/67
f 14/14/14 16/16/16 17/17/17
f 8/8/8 10/10/10 26/26/26
f 17/17/17 16/16/16 11/11/11
f 16/16/16 15/15/15 11/11/11
f 26/26/26 10/10/10 13/13/13
f 10/10/10 9/9/9 13/13/13
f 74/70/68 75/71/69 76/72/70
f 76/72/70 75/71/69 77/70/71
f 76/72/70 77/70/71 78/73/72
f 78/73/72 79/74/73 76/72/70
f 74/70/68 76/72/70 79/74/73
f 79/74/73 80/73/74 74/70/68
f 74/70/68 81/75/75 75/71/69
f 81/75/75 77/70/71 75/71/69
f 81/75/75 82/76/76 78/73/72
f 78/73/72 77/70/71 81/75/75
f 74/70/68 80/73/74 82/76/76
f 82/76/76 81/75/75 74/70/68
f 83/70/77 84/71/78 85/72/79
f 85/72/79 84/71/78 86/70/80
f 87/74/81 85/72/79 86/70/80
f 88/73/81 83/70/77 85/72/79
f 83/70/77 89/75/82 84/71/78
f 89/75/82 86/70/80 84/71/78
f 88/73/81 86/70/80 89/75/82
f 90/76/81 89/75/82 83/70/77
f 91/70/83 92/71/84 93/72/85
f 93/72/85 92/71/84 94/70/86
f 95/74/87 93/72/85 94/70/86
f 96/73/87 91/70/83 93/72/85
f 91/70/83 97/75/88 92/71/84
f 97/75/88 94/70/86 92/71/84
f 96/73/87 94/70/86 97/75/88
f 98/76/87 97/75/88 91/70/83
# Vertices: 98, normals: 88, texture coordinates: 76, faces: 137

# cowboy_1
o obj2
v -107.79658556 243.49300849 -147.08669576
v -183.13937187 339.46485816 18.20022447
v -125.76220036 304.47015845 5.09215401
v -77.91286707 257.75373496 -114.80845836
v 183.13939571 339.46481048 18.20016784
v 107.79651403 243.49296081 -147.08670768
v 77.91280746 257.75368727 -114.80849412
v 125.7622242 304.47013461 5.09210633
v -99.99997616 414.45385986 120.35311861
v 1.757E-05 344.14953458 101.65933724
v 100.00002384 414.45385986 120.35311861
v 1.757E-05 344.14953458 101.65933724
v -77.91286707 257.75373496 -114.80845836
v -97.23285437 414.24559698 -52.12170078
v -36.04071438 348.31648743 -92.91961503
v 125.7622242 304.47013461 5.09210633
v 77.91280746 257.75368727 -114.80849412
v 97.23284245 414.24559698 -52.12173058
v -125.76220036 304.47015845 5.09215401
v 8.51E-06 389.04765458 49.44656411
v 36.04067266 348.31643975 -92.91963888
v 1.757E-05 344.14953458 101.65933724
v 36.04067266 348.31643975 -92.91963888
v 8.51E-06 389.04765458 49.44656411
v 44.42451 436.61045482 -33.52413138
v -36.04071438 348.31648743 -92.91961503
v -44.42452192 436.61045482 -33.5241135
v 1.757E-05 344.14953458 101.65933724
v 123.91531467 273.17483917 30.16193231
v 183.13939571 339.46481048 18.20016784
v 100.00002384 414.45385986 120.35311861
v -76.58390403 212.33573922 -87.26584198
v -123.91530275 273.17488685 30.16196807
v -183.13937187 339.46485816 18.20022447
v -107.79658556 243.49300849 -147.08669576
v 76.58385038 212.33573922 -87.26584198
v 107.79651403 243.49296081 -147.08670768
v -99.99997616 414.45385986 120.35311861
v 1.757E-05 344.14953458 101.65933724
v -123.91530275 273.17488685 30.16196807
v -5.88E-06 330.76968137 -3.45283622
v -76.58390403 212.33573922 -87.26584198
v 76.58385038 212.33573922 -87.26584198
v 123.91531467 273.17483917 30.16193231
v 22.36987054 154.03287811 24.54452091
v 8.14591646 154.03287916 31.02674955
v 5.85902035 140.06310123 37.65665693
v 18.66958886 131.42929652 35.27191226
v 28.87386978 140.06309952 27.16818852
v 33.60103965 124.2430738 31.34163382
v 13.11178356 168.25154204 23.07642639
v 38.05356026 151.44179168 18.43344486
v -6.75560385 151.441795 38.85415709
v 5.90745658 124.24307586 43.96234217
v 63.30012083 62.90248141 -30.16237449
v 0 62.90247548 -66.53131675
v -6E-08 94.01937709 -37.45909375
v 36.7605865 94.01937457 -16.33838606
v 63.30011487 62.90249332 42.93029476
v 36.76058054 94.01938149 26.10907513
v 0 62.90249919 78.96152306
v -6E-08 94.01939085 47.03366417
v -63.30012083 62.90248141 -30.16237449
v -36.7605865 94.01937457 -16.33838606
v -6E-08 94.01937709 -37.45909375
v 0 62.90247548 -66.53131675
v -63.30011487 62.90249332 42.93029476
v -36.76058054 94.01938745 26.10907513
v 0 62.90249919 78.96152306
v -6E-08 94.01939085 47.03366417
v 0 62.90247548 -66.53131675
v 63.30012083 62.90248141 -30.16237449
v 0 86.64047223 6.22143526
v 0 62.90249919 78.96152306
v 63.30011487 62.90249332 42.93029476
v -63.30012083 62.90248141 -30.16237449
v -63.30011487 62.90249332 42.93029476
v 44.42451 436.61045482 -33.52413138
v -44.42452192 436.61045482 -33.5241135
v 1.99458897 39.46461487 6.60601882
v 11.46449372 16.42558501 4.6085059
v 28.51718962 18.30136869 24.00789112
v 28.43650877 39.45602119 32.90275289
v 54.73325253 39.46461485 6.46083681
v 45.21225095 16.42558498 4.44852479
v 54.73325253 39.46461485 6.46083681
v 28.36391628 23.27716159 6.5334297
v 28.43650877 39.45602119 32.90275289
v 1.99458897 39.46461487 6.60601882
v 28.29132974 39.45827757 -19.83590024
v 28.29132974 39.45827757 -19.83590024
v -28.29132676 39.45827757 -19.83590173
v -54.7332406 39.46461187 6.46083681
v -28.36391628 23.27716159 6.5334297
v -1.99458599 39.46461189 6.60601882
v -28.29132676 39.45827757 -19.83590173
v -28.43650579 39.45602119 32.90275289
v -54.7332406 39.46461187 6.46083681
v -45.21225095 16.42558498 4.44852479
v -28.51718962 18.30136869 24.00789112
v -28.43650579 39.45602119 32.90275289
v -1.99458599 39.46461189 6.60601882
v -11.46449372 16.42558501 4.6085059
v 28.29132974 39.45827757 -19.83590024
v 28.3094734 16.42306714 -11.07538908
v 28.29132974 39.45827757 -19.83590024
v 28.3094734 16.42306714 -11.07538908
v -28.29132676 39.45827757 -19.83590173
v -28.3094734 16.42306714 -11.07538908
v -28.29132676 39.45827757 -19.83590173
v -28.3094734 16.42306714 -11.07538908
v 28.02703679 10.17646302 -20.7531886
v 28.02703679 6.54374884 -31.93352627
v 28.02703679 16.05431266 -28.84335779
v 28.02703679 25.56487994 -31.93352937
v 28.02703679 21.9321679 -20.75319051
v 28.02703679 16.05431266 -28.84335779
v 28.02703679 6.54374884 -31.93352627
v 28.02703679 16.05431103 -38.84336018
v 28.02703679 16.05431266 -28.84335779
v 28.02703679 21.9321679 -20.75319051
v 28.02703679 10.17646302 -20.7531886
v 28.02703679 16.05431266 -28.84335779
v 28.02703679 16.05431103 -38.84336018
v 28.02703679 25.56487994 -31.93352937
v 28.02703679 16.05431266 -28.84335779
v 28.02703679 17.83789485 -31.14116482
v 26.25927031 16.07012837 -31.14116454
v 24.49150383 16.07013242 2.8422106
v 28.02703679 19.60566686 2.84221002
v 29.79480624 16.07012837 -31.14116454
v 31.56257272 16.07013242 2.8422106
v 28.02703679 12.53459798 2.84221117
v 28.02703679 14.30236041 -31.14116425
v -28.02703679 10.17646302 -20.7531886
v -28.02703679 16.05431266 -28.84335779
v -28.02703679 6.54374884 -31.93352627
v -28.02703679 25.56487994 -31.93352937
v -28.02703679 16.05431266 -28.84335779
v -28.02703679 21.9321679 -20.75319051
v -28.02703679 6.54374884 -31.93352627
v -28.02703679 16.05431266 -28.84335779
v -28.02703679 16.05431103 -38.84336018
v -28.02703679 21.9321679 -20.75319051
v -28.02703679 16.05431266 -28.84335779
v -28.02703679 10.17646302 -20.7531886
v -28.02703679 16.05431103 -38.84336018
v -28.02703679 16.05431266 -28.84335779
v -28.02703679 25.56487994 -31.93352937
v -28.02703679 17.83789485 -31.14116482
v -28.02703679 19.60566686 2.84221002
v -24.49150383 16.07013242 2.8422106
v -26.25927031 16.07012837 -31.14116454
v -29.79480624 16.07012837 -31.14116454
v -28.02703679 14.30236041 -31.14116425
v -28.02703679 12.53459798 2.84221117
v -31.56257272 16.07013242 2.8422106
v -7E-08 94.28845018 -38.42221247
v -30.60518205 139.91960123 -10.08288756
v -1E-08 166.05260149 -13.71459239
v 0.00338611 166.05430028 23.22632796
v 17.8494066 165.71412345 15.88244868
v 17.84441769 165.71788686 -6.22333045
v -37.59992123 94.21876991 -16.84411213
v -37.60050237 94.21396093 26.61570266
v -30.60518205 139.91960123 -10.08288756
v -1E-08 166.05260149 -13.71459239
v -17.84441769 165.71788686 -6.22333045
v -17.85075665 165.71861764 15.87589961
v 0.00186964 94.28689666 47.99721791
v 0.00338611 166.05430028 23.22632796
v -30.82792163 140.62933054 19.89644859
v -81.52402639 187.69683122 29.21863717
v -50.39670467 172.6220404 21.29725535
v -54.15582061 174.82341331 -12.1105844
v -81.37324452 189.17817765 -18.68163896
v -46.51890099 171.72609386 -11.14558246
v -17.85075665 165.71861764 15.87589961
v -17.84441769 165.71788686 -6.22333045
v -54.8402369 139.52110779 -13.89456131
v -30.60518205 139.91960123 -10.08288756
v -81.37324452 189.17817765 -18.68163896
v -93.43178868 142.81232029 -20.16002478
v -93.58412027 141.32603859 27.74809383
v -81.52402639 187.69683122 29.21863717
v -93.43178868 142.81232029 -20.16002478
v -63.11582923 141.00649119 -14.57676652
v -93.58412027 141.32603859 27.74809383
v -59.11933184 139.10042417 22.6741579
v -30.82792163 140.62933054 19.89644859
v -93.43178868 142.81232029 -20.16002478
v -63.11582923 141.00649119 -14.57676652
v 0.00186964 94.28689666 47.99721791
v 0.00338611 166.05430028 23.22632796
v -17.85075665 165.71861764 15.87589961
v -30.60518205 139.91960123 -10.08288756
v -7E-08 94.28845018 -38.42221247
v -37.59992123 94.21876991 -16.84411213
v -30.60518205 139.91960123 -10.08288756
v -17.84441769 165.71788686 -6.22333045
v -1E-08 166.05260149 -13.71459239
v 30.60103357 139.91987541 -10.08522257
v 17.84441769 165.71788686 -6.22333045
v 30.60103357 139.91987541 -10.08522257
v 37.59992123 94.21876991 -16.84411213
v 37.59870231 94.21904521 26.61670401
v 30.60103357 139.91987541 -10.08522257
v 30.85899055 138.99618711 19.87905473
v 17.8494066 165.71412345 15.88244868
v 93.58412027 141.32603859 27.74809383
v 59.12669897 139.10202157 22.67683862
v 63.11582923 141.00649119 -14.57676652
v 93.43178868 142.81232029 -20.16002478
v 54.8515141 139.52601922 -13.89985719
v 54.8515141 139.52601922 -13.89985719
v 46.51890099 171.72609386 -11.14558246
v 54.15582061 174.82341331 -12.1105844
v 63.11582923 141.00649119 -14.57676652
v 50.39634705 172.62168278 21.2973835
v 17.8494066 165.71412345 15.88244868
v 30.85899055 138.99618711 19.87905473
v 81.52402639 187.69683122 29.21863717
v 93.43178868 142.81232029 -20.16002478
v 81.37324452 189.17817765 -18.68163896
v 81.37324452 189.17817765 -18.68163896
v 81.52402639 187.69683122 29.21863717
v 93.58412027 141.32603859 27.74809383
v 93.43178868 142.81232029 -20.16002478
v 30.60103357 139.91987541 -10.08522257
v 17.84441769 165.71788686 -6.22333045
v 30.60103357 139.91987541 -10.08522257
v 37.59992123 94.21876991 -16.84411213
v 30.60103357 139.91987541 -10.08522257
v -54.8402369 139.52110779 -13.89456131
v -30.60518205 139.91960123 -10.08288756
vn -0.47659 0.87712 -0.0593
vn -0.90514 0.05744 0.42122
vn -0.19172 0.3792 0.90523
vn -0.05374 0.62209 0.7811
vn 0.90514 0.05744 0.42122
vn 0.47659 0.87712 -0.0593
vn 0.05374 0.62209 0.7811
vn 0.19172 0.3792 0.90523
vn -0.25032 -0.50287 0.82732
vn 0 -0.99939 0.03488
vn 0.25032 -0.50287 0.82732
vn -0.66397 0.25847 0.70166
vn 0.03931 0.85202 0.52204
vn 0.66397 0.25847 0.70166
vn 0 -0.53146 0.84708
vn -0.03931 0.85202 0.52204
vn -0.21595 0.08179 0.97297
vn 0.21595 0.08179 0.97297
vn 0.27867 -0.51507 -0.81058
vn -0.22193 -0.12543 -0.96696
vn -0.27867 -0.51507 -0.81058
vn 0.22193 -0.12543 -0.96696
vn 0 -0.44347 -0.89629
vn 0.38968 -0.85508 0.34202
vn 0.38968 -0.85508 0.34202
vn 0.38968 -0.85508 0.34202
vn 0.38968 -0.85508 0.34202
vn 0.38968 -0.85508 0.34202
vn 0.38969 -0.85508 0.34202
vn 0.788 0.44347 -0.42708
vn 0 0.90136 -0.43307
vn 0 0.73072 0.68268
vn 0.61901 0.37044 0.69253
vn 0.78029 -0.4656 -0.41757
vn 0.6133 -0.3459 0.71008
vn 0 -0.90919 -0.41637
vn 0 -0.69795 0.71614
vn -0.788 0.44347 -0.42708
vn -0.61901 0.37044 0.69253
vn -0.78029 -0.4656 -0.41757
vn -0.6133 -0.3459 0.71008
vn 0 -0.00034 -1
vn -0.80303 -0.03028 0.59516
vn -0.92477 0.07703 -0.37264
vn 0.00662 -0.90498 -0.4254
vn 0.00125 -0.81902 0.57377
vn 0.80265 -0.02515 0.59592
vn 0.92472 0.08561 -0.3709
vn 0 0 1
vn -0.00226 0.7895 0.61374
vn 0.00226 0.7895 0.61374
vn -0.80265 -0.02515 0.59592
vn 0.80303 -0.03028 0.59516
vn -0.00125 -0.81902 0.57377
vn -0.92473 0.08561 -0.37087
vn -0.00662 -0.90498 -0.4254
vn 0.92477 0.07703 -0.37264
vn -0.00296 0.94484 -0.32753
vn 0.00296 0.94484 -0.32753
vn 1 0 0
vn 1 0 0
vn 1 -0 0
vn -0.70663 0.03676 0.70663
vn 0.70663 0.03676 -0.70663
vn 0 1 0
vn 0.70663 0.03676 0.70663
vn -0.70663 0.03676 -0.70663
vn -1 0 0
vn -1 -0 0
vn -1 0 0
vn -1 0 0
vn -1 -0 0
vn 0.70663 0.03676 0.70663
vn -0.70663 0.03676 -0.70663
vn -0.70663 0.03676 0.70663
vn 0.70663 0.03676 -0.70663
vn 1 -0 0
vn 1 0 0
vn 0 0.96304 0.26936
vn -0.47396 0.87382 -0.10862
vn 0 0.65721 0.75371
vn 0.00339 -0.65525 0.75541
vn 0.04047 -0.57108 0.8199
vn 0.03519 0.56555 0.82396
vn -0.84034 0.50262 0.20298
vn -0.84096 -0.50354 0.19807
vn -0.03519 0.56561 0.82392
vn -0.04157 -0.56442 0.82444
vn 0.00186 -0.96347 0.26781
vn -0.46616 -0.87838 -0.10554
vn -0.30367 -0.63679 0.70872
vn 0.34573 -0.70464 0.61964
vn 0.40072 0.66068 0.63477
vn -0.29632 0.60087 0.74239
vn 0.29131 0.69166 0.66087
vn 0.0477 0.71229 -0.70026
vn -0.61218 0.64173 -0.46197
vn -0.62097 -0.60345 -0.50024
vn 0.04001 0.72548 -0.68708
vn 0.0926 -0.66974 -0.7368
vn 0.47063 0.87567 -0.10819
vn 0.84034 0.50261 0.20301
vn 0.83916 -0.50452 0.20314
vn 0.49685 -0.86146 -0.10502
vn 0.62098 -0.60343 -0.50025
vn -0.08503 -0.67273 -0.73499
vn -0.04001 0.7254 -0.68716
vn 0.61218 0.64172 -0.46199
vn -0.03616 0.7175 -0.69562
vn -0.29127 0.69159 0.66095
vn -0.40066 0.66068 0.6348
vn -0.3462 -0.7048 0.61919
vn 0.30367 -0.63679 0.70872
vn 0.29632 0.60087 0.74239
vt 0.22301 0.17804
vt 0.2773 0.3027
vt 0.23496 0.28653
vt 0.20323 0.20139
vt 0.02602 0.3027
vt 0.08032 0.17804
vt 0.1001 0.20139
vt 0.06836 0.28653
vt 0.23435 0.39334
vt 0.15837 0.36292
vt 0.06898 0.39334
vt 0.14496 0.36292
vt 0.10212 0.10558
vt 0.0435 0.28369
vt 0.12662 0.21647
vt 0.28351 0.10592
vt 0.19295 0.10616
vt 0.25243 0.28441
vt 0.01327 0.10498
vt 0.14869 0.1576
vt 0.16863 0.21674
vt 0.14912 0.10788
vt 0.1046 0.19829
vt 0.13742 0.38708
vt 0.05589 0.31606
vt 0.17025 0.19829
vt 0.21896 0.31606
vt 0.17946 0.1486
vt 0.17946 0.14063
vt 0.17946 0.17057
vt 0.17946 0.17144
vt 0.17946 0.13952
vt 0.17946 0.14053
vt 0.17946 0.17043
vt 0.17946 0.169
vt 0.17946 0.13958
vt 0.17946 0.16909
vt 0.17946 0.17136
vt 0.14212 0.1371
vt 0.14212 0.15378
vt 0.13948 0.58825
vt 0.1755 0.59949
vt 0.16198 0.59527
vt 0.11231 0.57977
vt 0.10646 0.57795
vt 0.06563 0.56521
vt 0.2003 0.60723
vt 0.10159 0.57643
vt 0.2006 0.60732
vt 0.13585 0.58712
vt 0.21719 0.13224
vt 0.28761 0.13224
vt 0.28761 0.10792
vt 0.21719 0.10792
vt 0.13712 0.13224
vt 0.13712 0.10792
vt 0.07899 0.13224
vt 0.06742 0.10792
vt 0.14122 0.13551
vt 0.13687 0.11149
vt 0.06697 0.11099
vt 0.07916 0.13554
vt 0.21694 0.13557
vt 0.2212 0.11111
vt 0.28698 0.13537
vt 0.28806 0.11032
vt 0.18598 0.15825
vt 0.18598 0.13772
vt 0.18598 0.15825
vt 0.16207 0.30457
vt 0.13414 0.30424
vt 0.21912 0.1063
vt 0.22335 0.17992
vt 0.14466 0.19014
vt 0.14489 0.1063
vt 0.07059 0.1063
vt 0.06618 0.18009
vt 0.24342 0.23943
vt 0.1442 0.26212
vt 0.1442 0.16035
vt 0.04498 0.23943
vt 0.09996 0.35378
vt 0.18843 0.35378
vt 0.00289 0.1063
vt 0.00703 0.17697
vt 0.2848 0.1191
vt 0.28158 0.18331
vt 0.21144 0.54439
vt 0.04437 0.54157
vt 0.12649 0.62652
vt 0.21138 0.54439
vt 0.04431 0.54157
vt 0.12644 0.62652
vt 0.2113 0.54441
vt 0.04423 0.54159
vt 0.12635 0.62654
vt 0.21127 0.54441
vt 0.0442 0.54159
vt 0.12633 0.62653
vt 0.2113 0.54443
vt 0.04423 0.54162
vt 0.12635 0.62656
vt 0.08265 0.6055
vt 0.08265 0.55694
vt 0.08265 0.55694
vt 0.08265 0.6055
vt 0.13122 0.6055
vt 0.13122 0.6055
vt 0.13122 0.55694
vt 0.13122 0.55694
vt 0.73774 0.52174
vt 0.60725 0.64428
vt 0.73852 0.64844
vt 0.69448 0.67776
vt 0.67068 0.66054
vt 0.65259 0.66699
vt 0.60896 0.51842
vt 0.6548 0.51952
vt 0.60693 0.63794
vt 0.65822 0.68399
vt 0.74373 0.51938
vt 0.74373 0.70651
vt 0.64043 0.63492
vt 0.71092 0.53669
vt 0.67593 0.56315
vt 0.69958 0.59932
vt 0.73709 0.58732
vt 0.68928 0.60277
vt 0.64143 0.58924
vt 0.6521 0.61228
vt 0.698 0.64271
vt 0.66777 0.64218
vt 0.68821 0.74344
vt 0.68844 0.70093
vt 0.64453 0.70073
vt 0.64429 0.74323
vt 0.74478 0.64311
vt 0.70831 0.64142
vt 0.73207 0.5884
vt 0.69341 0.60062
vt 0.66086 0.61184
vt 0.74521 0.64216
vt 0.70955 0.64273
vt 0.73751 0.51938
vt 0.72182 0.70651
vt 0.66909 0.678
vt 0.60723 0.63628
vt 0.74113 0.51804
vt 0.60806 0.51907
vt 0.68835 0.66168
vt 0.68982 0.60166
vt 0.75276 0.60305
vt 0.73234 0.58874
vt 0.69338 0.60066
vt 0.71051 0.64284
vt 0.74611 0.64285
vt 0.70062 0.64167
vt 0.69844 0.64278
vt 0.68964 0.60293
vt 0.69992 0.59946
vt 0.70872 0.64148
vt 0.67619 0.56336
vt 0.64186 0.58957
vt 0.66024 0.6106
vt 0.71122 0.53688
vt 0.74513 0.6431
vt 0.73738 0.58743
vt 0.66827 0.64231
vt 0.65257 0.61253
vt 0.67126 0.64011
vt 0.69957 0.6418
vt 0.67004 0.64115
usemtl mat0
f 99/77/89 100/78/90 101/79/91
f 101/79/91 102/80/92 99/77/89
f 103/81/93 104/82/94 105/83/95
f 105/83/95 106/84/96 103/81/93
f 100/78/90 107/85/97 108/86/98
f 108/86/98 101/79/91 100/78/90
f 104/82/94 99/77/89 102/80/92
f 102/80/92 105/83/95 104/82/94
f 109/87/99 103/81/93 106/84/96
f 106/84/96 110/88/98 109/87/99
f 111/89/92 112/90/100 113/91/101
f 114/92/96 115/93/95 116/94/102
f 117/95/91 118/96/103 112/90/100
f 113/91/101 119/97/104 115/93/95
f 115/93/95 111/89/92 113/91/101
f 120/98/98 114/92/96 118/96/103
f 121/99/104 122/100/103 123/101/105
f 122/100/103 124/102/101 125/103/106
f 121/99/104 124/102/101 122/100/103
f 126/104/98 127/105/107 128/106/93
f 128/106/93 129/107/99 126/104/98
f 130/108/108 131/109/109 132/110/90
f 132/110/90 133/111/89 130/108/108
f 127/105/107 134/112/110 135/113/94
f 135/113/94 128/106/93 127/105/107
f 131/109/109 126/104/98 136/114/97
f 136/114/97 132/110/90 131/109/109
f 134/112/110 130/108/108 133/111/89
f 133/111/89 135/113/94 134/112/110
f 137/115/98 138/115/109 139/116/111
f 140/115/108 141/115/110 139/116/111
f 142/115/107 137/115/98 139/116/111
f 138/115/109 140/115/108 139/116/111
f 141/115/110 142/115/107 139/116/111
f 143/117/112 144/118/112 145/119/112
f 145/119/112 146/120/112 147/121/112
f 147/121/112 143/117/112 145/119/112
f 146/120/113 148/122/113 147/121/113
f 143/117/114 149/123/114 144/118/114
f 147/121/115 150/124/115 143/117/115
f 144/118/116 151/125/116 145/119/116
f 145/119/117 152/126/117 146/120/117
f 153/127/118 154/128/119 155/129/120
f 155/129/120 156/130/121 153/127/118
f 157/131/122 153/127/118 156/130/121
f 156/130/121 158/132/123 157/131/122
f 159/133/124 157/131/122 158/132/123
f 158/132/123 160/134/125 159/133/124
f 161/135/126 162/136/127 163/137/120
f 163/137/120 164/138/119 161/135/126
f 165/139/128 166/140/129 162/136/127
f 162/136/127 161/135/126 165/139/128
f 167/141/124 168/142/125 166/140/129
f 166/140/129 165/139/128 167/141/124
f 169/143/119 170/143/118 171/144/130
f 172/145/124 171/144/130 173/145/122
f 170/143/118 173/145/122 171/144/130
f 169/143/119 171/144/130 174/143/126
f 174/143/126 171/144/130 175/145/128
f 172/145/124 175/145/128 171/144/130
f 116/94/102 115/93/95 119/97/104
f 112/90/100 111/89/92 117/95/91
f 116/94/102 119/97/104 176/146/105
f 118/96/103 116/94/102 176/146/105
f 112/90/100 118/96/103 177/147/106
f 113/91/101 112/90/100 177/147/106
f 118/96/103 114/92/96 116/94/102
f 118/96/103 117/95/91 120/98/98
f 178/148/131 179/149/132 180/150/133
f 180/150/133 181/151/134 178/148/131
f 182/152/135 181/151/134 180/150/133
f 180/150/133 183/153/136 182/152/135
f 184/154/135 185/155/137 186/156/134
f 186/156/134 185/155/137 187/157/131
f 187/157/131 185/155/137 188/158/138
f 189/159/138 185/155/137 184/154/135
f 190/159/139 191/154/140 192/155/137
f 193/157/141 194/158/139 192/155/137
f 195/156/142 193/157/141 192/155/137
f 191/154/140 195/156/142 192/155/137
f 196/152/140 197/153/143 198/150/144
f 198/150/144 199/151/142 196/152/140
f 200/148/141 199/151/142 198/150/144
f 198/150/144 201/149/145 200/148/141
f 202/160/138 182/152/135 183/153/136
f 183/153/136 203/161/146 202/160/138
f 178/148/131 204/162/138 205/163/146
f 205/163/146 179/149/132 178/148/131
f 206/162/139 200/148/141 201/149/145
f 201/149/145 207/163/147 206/162/139
f 196/152/140 208/160/139 209/161/147
f 209/161/147 197/153/143 196/152/140
f 210/164/148 211/165/148 212/166/148
f 213/167/149 214/168/149 215/169/149
f 216/170/148 217/171/148 218/172/148
f 219/173/150 220/174/150 221/175/150
f 222/176/148 223/177/148 224/178/148
f 225/179/151 226/180/151 227/181/151
f 227/181/151 228/182/151 225/179/151
f 229/183/152 230/184/152 231/185/152
f 231/185/152 232/186/152 229/183/152
f 229/183/153 232/186/153 226/180/153
f 226/180/153 225/179/153 229/183/153
f 230/184/154 229/183/154 225/179/154
f 225/179/154 228/182/154 230/184/154
f 232/186/155 231/185/155 227/181/155
f 227/181/155 226/180/155 232/186/155
f 210/164/156 212/166/156 211/165/156
f 213/167/157 215/169/157 214/168/157
f 216/170/156 218/172/156 217/171/156
f 219/173/158 221/175/158 220/174/158
f 222/176/156 224/178/156 223/177/156
f 233/164/156 234/166/156 235/165/156
f 236/167/159 237/169/159 238/168/159
f 239/170/156 240/172/156 241/171/156
f 242/173/160 243/175/160 244/174/160
f 245/176/156 246/178/156 247/177/156
f 248/179/161 249/182/161 250/181/161
f 250/181/161 251/180/161 248/179/161
f 252/183/162 253/186/162 254/185/162
f 254/185/162 255/184/162 252/183/162
f 252/183/153 248/179/153 251/180/153
f 251/180/153 253/186/153 252/183/153
f 255/184/163 249/182/163 248/179/163
f 248/179/163 252/183/163 255/184/163
f 253/186/164 251/180/164 250/181/164
f 250/181/164 254/185/164 253/186/164
f 233/164/148 235/165/148 234/166/148
f 236/167/165 238/168/165 237/169/165
f 239/170/148 241/171/148 240/172/148
f 242/173/166 244/174/166 243/175/166
f 245/176/148 247/177/148 246/178/148
f 256/187/167 257/188/168 258/189/169
f 259/190/170 260/191/171 261/192/172
f 262/193/173 263/194/174 264/195/168
f 259/190/170 265/196/169 266/192/175
f 259/190/170 266/192/175 267/191/176
f 268/197/177 269/198/170 270/199/178
f 271/200/179 272/201/180 273/202/181
f 273/202/181 274/203/182 271/200/179
f 275/204/183 272/201/180 276/205/176
f 276/205/176 277/206/175 275/204/183
f 278/207/184 275/204/183 277/206/175
f 277/206/175 279/208/168 278/207/184
f 280/209/182 281/210/185 282/211/186
f 282/211/186 283/212/179 280/209/182
f 284/213/185 274/203/182 273/202/181
f 273/202/181 285/214/187 284/213/185
f 271/200/179 286/215/186 287/216/188
f 287/216/188 272/201/180 271/200/179
f 272/201/180 287/216/188 288/217/178
f 288/217/178 276/205/176 272/201/180
f 286/215/186 289/218/185 290/219/187
f 290/219/187 287/216/188 286/215/186
f 270/199/178 263/194/174 291/220/177
f 292/221/170 293/222/176 270/199/178
f 263/194/174 270/199/178 264/195/168
f 294/223/168 295/224/167 296/225/173
f 297/226/168 298/227/175 299/228/169
f 259/190/170 261/192/172 265/196/169
f 300/226/189 299/228/169 301/227/172
f 302/223/189 303/225/190 295/224/167
f 304/194/191 305/195/189 306/199/192
f 292/221/170 306/199/192 307/222/171
f 306/199/192 291/220/177 304/194/191
f 308/229/193 309/230/194 310/231/195
f 310/231/195 311/232/196 308/229/193
f 310/231/195 309/230/194 312/233/197
f 313/234/197 314/235/198 315/236/199
f 315/236/199 316/237/195 313/234/197
f 314/235/198 317/238/200 315/236/199
f 317/238/200 318/239/171 319/240/192
f 319/240/192 309/230/194 317/238/200
f 320/241/201 317/238/200 309/230/194
f 309/230/194 308/229/193 320/241/201
f 321/242/196 316/237/195 315/236/199
f 315/236/199 322/243/202 321/242/196
f 323/209/202 324/212/201 325/211/193
f 325/211/193 326/210/196 323/209/202
f 313/234/197 327/244/189 328/245/172
f 328/245/172 314/235/198 313/234/197
f 314/235/198 328/245/172 318/239/171
f 318/239/171 317/238/200 314/235/198
f 309/230/194 319/240/192 329/246/189
f 329/246/189 312/233/197 309/230/194
f 320/241/201 322/243/202 315/236/199
f 315/236/199 317/238/200 320/241/201
f 268/197/177 306/199/192 269/198/170
f 330/193/190 305/195/189 304/194/191
f 256/187/167 258/189/169 331/188/189
f 278/207/184 285/214/187 273/202/181
f 273/202/181 275/204/183 278/207/184
f 332/247/184 333/248/168 288/217/178
f 288/217/178 287/216/188 332/247/184
f 287/216/188 290/219/187 332/247/184
f 272/201/180 275/204/183 273/202/181
# Vertices: 235, normals: 114, texture coordinates: 172, faces: 196

# body_2
o obj3
v -6E-08 94.01937709 -37.45909375
v -30.1212579 140.03320782 -9.21518253
v 0 165.29907968 -13.05716645
v 0 165.29908548 22.57086475
v 17.80831516 164.89669334 15.30788835
v 17.80831814 164.89668992 -5.65382209
v -36.7605865 94.01937457 -16.33838606
v -36.76058054 94.01938745 26.10907513
v -30.1212579 140.03320782 -9.21518253
v -15.33761173 53.35954695 16.40151764
v -10.81210524 94.83086719 15.46939557
v -33.89645219 92.87739085 17.50473953
v -38.02405298 54.67830013 18.97168163
v -39.01427388 58.58632881 -2.53068046
v -34.05260444 93.49539169 -6.78038928
v -10.81210524 94.84056742 -5.42965549
v -14.48288262 55.93894726 0.38653595
v -18.64899397 26.26027177 0.59353468
v -14.48288262 55.93894726 0.38653595
v -21.96394205 23.44880914 13.10219979
v -38.33730817 26.32001229 11.4690708
v -39.01427388 58.58632881 -2.53068046
v -34.28731561 29.61280007 -2.50355488
v 111.36167049 172.14328688 -34.05289474
v 98.86136055 206.48760836 2.49555081
v 145.70598602 184.64360278 2.49555791
v 111.36165857 172.14329879 39.04400346
v 78.02812457 160.62203692 2.84024002
v 123.86196852 137.79896538 2.495562
v 49.09126461 310.05969025 -1.36117036
v 113.52305412 345.99759628 3.01289584
v 15.76376557 331.68709915 39.11646863
v 80.78169823 261.10429412 -21.56648866
v 35.02456844 304.76950732 -53.19796998
v 113.52305412 345.99759628 3.01289584
v -34.28731561 29.61280007 -2.50355488
v -18.64899397 26.26027177 0.59353468
v 0 165.29907968 -13.05716645
v -17.80831814 164.89668992 -5.65382209
v -17.80831516 164.89669334 15.30788835
v -6E-08 94.01939085 47.03366417
v 0 165.29908548 22.57086475
v -30.35267889 140.74091029 19.02369799
v -81.22377396 186.98754776 28.58085566
v -50.74746609 172.00329639 20.59431254
v -54.56100106 174.19090084 -11.45046956
v -81.08041883 188.43540851 -18.07951868
v -59.20923948 139.83517052 22.00179951
v -54.8808217 140.21788621 -13.17842205
v -30.1212579 140.03320782 -9.21518253
v -30.35267889 140.74091029 19.02369799
v -46.81034088 171.06382676 -10.45531959
v -17.80831516 164.89669334 15.30788835
v -17.80831814 164.89668992 -5.65382209
v -54.8808217 140.21788621 -13.17842205
v -46.81034088 171.06382676 -10.45531959
v -17.80831814 164.89668992 -5.65382209
v -30.1212579 140.03320782 -9.21518253
v -81.08041883 188.43540851 -18.07951868
v -92.82245636 143.27606837 -19.51686541
v -92.96581149 141.82820762 27.14350893
v -81.22377396 186.98754776 28.58085566
v -92.82245636 143.27606837 -19.51686541
v -81.08041883 188.43540851 -18.07951868
v -54.56100106 174.19090084 -11.45046956
v -63.16158175 141.69400705 -13.85203822
v -92.96581149 141.82820762 27.14350893
v -30.35267889 140.74091029 19.02369799
v -63.16158175 141.69400705 -13.85203822
v -54.8808217 140.21788621 -13.17842205
v -92.82245636 143.27606837 -19.51686541
v -17.80831516 164.89669334 15.30788835
v -30.1212579 140.03320782 -9.21518253
v -6E-08 94.01937709 -37.45909375
v -36.7605865 94.01937457 -16.33838606
v 45.53884864 -1.67467725 21.72083733
v 28.51718962 -1.67467436 39.42272392
v 11.49552763 -1.6746772 21.99363289
v 28.51718962 18.30136869 24.00789112
v 28.51718962 -1.67467436 39.42272392
v 45.53884864 -1.67467725 21.72083733
v 11.49552763 -1.6746772 21.99363289
v 15.56103081 -1.67468036 2.62578548
v 41.064623 -1.67468039 2.42142127
v 41.064623 -1.67468039 2.42142127
v 45.21225095 16.42558498 4.44852479
v 28.31282616 -1.67468204 -7.6882449
v 28.3094734 16.42306714 -11.07538908
v 7.3679544 34.52586043 6.59122724
v 11.46449372 16.42558501 4.6085059
v 28.4217149 34.51902123 27.529389
v 49.35988188 34.52586041 6.47562925
v 28.31282616 -1.67468204 -7.6882449
v 28.3094734 16.42306714 -11.07538908
v 49.35988188 34.52586041 6.47562925
v 28.36391628 23.27716159 6.5334297
v 28.4217149 34.51902123 27.529389
v 7.3679544 34.52586043 6.59122724
v 28.30612063 34.52081743 -14.46253326
v 28.30612063 34.52081743 -14.46253326
v 0 170.12051215 -7.88825393
v 0 197.06707086 5.2162546
v 13.49958032 170.12051426 5.0172998
v 0 170.12051635 17.8630805
v 13.49958032 170.12051426 5.0172998
v 0 170.12051635 17.8630805
v 0 155.06973485 13.3856327
v 8.86036381 155.06973347 4.95438545
v -30.1212579 140.03320782 -9.21518253
v -17.80831814 164.89668992 -5.65382209
v 0 165.29907968 -13.05716645
v 0 170.12051215 -7.88825393
v 0 155.06973209 -3.5160932
v 15.56103081 -1.67468036 2.62578548
v 81.74955845 289.87745389 -52.14103415
v 67.95027256 186.88811789 -28.63100832
v 0 186.8881121 -64.21911185
v 0 287.4534457 -92.03064953
v 98.75766039 285.28157094 49.9126655
v 0 332.61625239 -32.41539354
v 0 342.86080239 51.08210223
v 15.76376557 331.68709915 39.11646863
v 67.75952578 189.14443477 13.64638704
v 51.43204927 308.59209332 75.15997627
v 80.78169823 261.10429412 -21.56648866
v -10.81210524 94.84056742 -5.42965549
v -34.05260444 93.49539169 -6.78038928
v 34.28731561 29.61280007 -2.50355488
v 18.64899397 26.26027177 0.59353468
v 14.48288113 55.93894726 0.38653595
v 39.01427388 58.58632881 -2.53068046
v 21.96394205 23.44880914 13.10219979
v 38.33730817 26.32001229 11.4690708
v 38.02405298 54.67830013 18.97168163
v 15.33761173 53.35954695 16.40151764
v 34.28731561 29.61280007 -2.50355488
v 39.01427388 58.58632881 -2.53068046
v 18.64899397 26.26027177 0.59353468
v 14.48288113 55.93894726 0.38653595
v 10.81210524 94.84056742 -5.42965549
v 34.05260444 93.49539169 -6.78038928
v -111.36167049 172.14328688 -34.05289474
v -145.70598602 184.64360278 2.49555791
v -98.86136055 206.48760836 2.49555081
v -111.36165857 172.14329879 39.04400346
v -123.86196852 137.79896538 2.495562
v -78.02812457 160.62203692 2.84024002
v -111.36167049 172.14328688 -34.05289474
v -49.09126461 310.05969025 -1.36117036
v -15.76376557 331.68709915 39.11646863
v -117.79761314 345.99759628 3.01289584
v -80.78169823 261.10429412 -21.56648866
v -117.79761314 345.99759628 3.01289584
v -35.02456844 304.76950732 -53.19796998
v -111.36167049 172.14328688 -34.05289474
v -111.36167049 172.14328688 -34.05289474
v 33.89645219 92.87739085 17.50473953
v 10.81210524 94.83086719 15.46939557
v 34.05260444 93.49539169 -6.78038928
v 10.81210524 94.84056742 -5.42965549
v 30.1212579 140.03320782 -9.21518253
v 17.80831814 164.89668992 -5.65382209
v 30.1212579 140.03320782 -9.21518253
v 36.7605865 94.01937457 -16.33838606
v 36.76058054 94.01938149 26.10907513
v 30.1212579 140.03320782 -9.21518253
v 30.35267889 139.10578799 19.02369826
v 17.80831516 164.89669334 15.30788835
v 92.96581149 141.82820762 27.14350893
v 59.20923948 139.83517052 22.00179951
v 63.16158175 141.69400705 -13.85203822
v 92.82245636 143.27606837 -19.51686541
v 54.8808217 140.21788621 -13.17842205
v 54.8808217 140.21788621 -13.17842205
v 46.81034088 171.06382676 -10.45531959
v 54.56100106 174.19090084 -11.45046956
v 63.16158175 141.69400705 -13.85203822
v 46.81034088 171.06382676 -10.45531959
v 50.74746609 172.00329639 20.59431254
v 54.56100106 174.19090084 -11.45046956
v 17.80831516 164.89669334 15.30788835
v 30.35267889 139.10578799 19.02369826
v 81.22377396 186.98754776 28.58085566
v 92.82245636 143.27606837 -19.51686541
v 81.08041883 188.43540851 -18.07951868
v 81.08041883 188.43540851 -18.07951868
v 81.22377396 186.98754776 28.58085566
v 92.96581149 141.82820762 27.14350893
v 92.82245636 143.27606837 -19.51686541
v 30.1212579 140.03320782 -9.21518253
v 17.80831814 164.89668992 -5.65382209
v 17.80831814 164.89668992 -5.65382209
v 30.35267889 139.10578799 19.02369826
v 30.1212579 140.03320782 -9.21518253
v 81.08041883 188.43540851 -18.07951868
v -11.46449372 16.42558501 4.6085059
v -11.49552763 -1.6746772 21.99363289
v -15.56103081 -1.67468036 2.62578548
v -28.31282616 -1.67468204 -7.6882449
v -28.30612063 34.52081743 -14.46253326
v -49.35988188 34.52586041 6.47562925
v -28.36391628 23.27716159 6.5334297
v -7.3679544 34.52586043 6.59122724
v -28.30612063 34.52081743 -14.46253326
v -28.4217149 34.51902123 27.529389
v -28.3094734 16.42306714 -11.07538908
v -45.21225095 16.42558498 4.44852479
v -28.31282616 -1.67468204 -7.6882449
v -41.064623 -1.67468039 2.42142127
v -28.51718962 18.30136869 24.00789112
v -49.35988188 34.52586041 6.47562925
v -28.4217149 34.51902123 27.529389
v -45.53884864 -1.67467725 21.72083733
v -7.3679544 34.52586043 6.59122724
v -28.3094734 16.42306714 -11.07538908
v -15.56103081 -1.67468036 2.62578548
v -11.49552763 -1.6746772 21.99363289
v -45.53884864 -1.67467725 21.72083733
v -41.064623 -1.67468039 2.42142127
v -28.51718962 -1.67467436 39.42272392
v 0 170.12051215 -7.88825393
v -13.49958032 170.12051426 5.0172998
v -13.49958032 170.12051426 5.0172998
v -8.86036381 155.06973347 4.95438545
v 0 170.12051215 -7.88825393
v 0 155.06973209 -3.5160932
v -28.51718962 -1.67467436 39.42272392
v -81.74955845 289.87745389 -52.14103415
v -67.95027256 186.88811789 -28.63100832
v -98.75766039 285.28157094 49.9126655
v -15.76376557 331.68709915 39.11646863
v -67.75952578 189.14443477 13.64638704
v -98.75766039 285.28157094 49.9126655
v -67.95027256 186.88811789 -28.63100832
v -51.43204927 308.59209332 75.15997627
v -80.78169823 261.10429412 -21.56648866
v 36.7605865 94.01937457 -16.33838606
v 30.1212579 140.03320782 -9.21518253
v 6.50702789 367.5271998 6.20901222
v -1.62951369 327.67734418 -6.74373184
v 59.04586911 402.39392445 68.62118245
v 54.28672433 336.3889788 57.55047086
v 25.08755326 322.33940017 51.91722029
v 118.92164946 317.61890491 63.40921115
v 46.22849822 155.52062023 -59.25315172
v -30.17726243 181.89183516 2.60498317
v -70.16273141 245.61452974 6.62283249
v -95.71839571 167.71350257 21.46542022
v 108.64942074 212.33963973 0.38503337
v 97.7806747 248.850833 64.74403857
v -46.22849822 155.52062023 -59.25315172
v 30.17726243 181.89183516 2.60498317
v 95.71839571 167.71350257 21.46542022
v 70.16273141 245.61452974 6.62283249
v -98.75766039 285.28157094 49.9126655
v -108.64942074 212.33963973 0.38503337
v -67.95027256 186.88811789 -28.63100832
v -97.7806747 248.850833 64.74403857
v 0 239.5008209 74.75598129
v 59.73641872 64.88042612 -28.10804113
v 0 64.88042053 -62.42946847
v -6E-08 94.01937709 -37.45909375
v 36.7605865 94.01937457 -16.33838606
v 59.73641276 64.88043736 40.86962179
v 36.76058054 94.01938149 26.10907513
v 0 64.8804429 74.87234608
v -6E-08 94.01939085 47.03366417
v -59.73641872 64.88042612 -28.10804113
v -36.7605865 94.01937457 -16.33838606
v -6E-08 94.01937709 -37.45909375
v 0 64.88042053 -62.42946847
v -59.73641276 64.88043736 40.86962179
v -36.76058054 94.01938745 26.10907513
v 0 64.8804429 74.87234608
v -6E-08 94.01939085 47.03366417
v 0 64.88042053 -62.42946847
v 59.73641872 64.88042612 -28.10804113
v 0 94.8804329 6.22143392
v 0 64.8804429 74.87234608
v 59.73641276 64.88043736 40.86962179
v -59.73641872 64.88042612 -28.10804113
v -59.73641276 64.88043736 40.86962179
v -5.59E-06 106.11023846 -76.67236269
v -7.07107484 99.0391666 -76.67236154
v -7.07107112 99.03917362 -33.56506054
v -1.86E-06 106.11024548 -33.56506169
v 7.07106292 99.03917256 -76.67236154
v 7.0710659 99.03917362 -33.56506054
v -2.98E-06 91.96810772 -33.56505939
v -6.71E-06 91.96810069 -76.67236038
v -2.61E-06 99.03917447 -28.35461919
v 7.07106292 99.03916746 -107.92092506
v -5.59E-06 106.11023337 -107.92092622
v -6.15E-06 99.03916617 -115.85373108
v -6.71E-06 91.9680956 -107.92092391
v -7.07107484 99.0391615 -107.92092506
v -2.61E-06 99.03917447 -28.35461919
v -2.61E-06 99.03917447 -28.35461919
v -28.31282616 -1.67468204 -7.6882449
v 28.31282616 -1.67468204 -7.6882449
v 28.30612063 34.52081743 -14.46253326
v 28.30612063 34.52081743 -14.46253326
v -28.30612063 34.52081743 -14.46253326
v -28.30612063 34.52081743 -14.46253326
v 68.93051267 189.81868935 55.63160665
v -4.7E-07 218.47406897 89.81694
v -4.7E-07 181.90977671 79.14566414
v -4.6E-07 342.86082623 51.08210223
v 98.75766039 285.28159478 49.9126655
v -4.7E-07 181.90977671 79.14566414
v -4.7E-07 173.6080911 16.02779481
v 68.93051267 189.81868935 55.63160665
v 67.95027256 186.88814174 -28.63100534
v -4.7E-07 173.6080911 16.02779481
v -4.6E-07 186.88813594 -64.21911185
v 68.93051267 189.81868935 55.63160665
v -4.7E-07 173.6080911 16.02779481
v 67.75952578 189.14449437 13.64639002
v -68.93051267 189.81868935 55.63160665
v -98.75766039 285.28159478 49.9126655
v -68.93051267 189.81868935 55.63160665
v -67.95027256 186.88814174 -28.63100534
v -67.75952578 189.14449437 13.64639002
v -4.7E-07 173.6080911 16.02779481
v -68.93051267 189.81868935 55.63160665
v 98.75766039 285.28159478 49.9126655
v 68.93051267 189.81868935 55.63160665
v 67.75952578 189.14449437 13.64639002
v 67.75952578 189.14449437 13.64639002
v 67.95027256 186.88814174 -28.63100534
v -67.75952578 189.14449437 13.64639002
v -68.93051267 189.81868935 55.63160665
v -98.75766039 285.28159478 49.9126655
v -67.95027256 186.88814174 -28.63100534
v 69.64085102 189.55143409 55.9237827
v 0 218.50213094 90.46141522
v 0 181.56103002 79.68016289
v 0 342.86080239 51.08210223
v 98.75766039 285.28157094 49.9126655
v 0 181.56103002 79.68016289
v 0 173.1737878 15.91185192
v 69.64085102 189.55143409 55.9237827
v 67.95027256 186.88811789 -28.63100832
v 0 173.1737878 15.91185192
v 0 186.8881121 -64.21911185
v 67.75952578 189.14443477 13.64638704
v -69.64085102 189.55143409 55.9237827
v -98.75766039 285.28157094 49.9126655
v -69.64085102 189.55143409 55.9237827
v -67.95027256 186.88811789 -28.63100832
v -67.75952578 189.14443477 13.64638704
v 98.75766039 285.28157094 49.9126655
v 69.64085102 189.55143409 55.9237827
v 67.75952578 189.14443477 13.64638704
v 67.95027256 186.88811789 -28.63100832
v -67.75952578 189.14443477 13.64638704
v -69.64085102 189.55143409 55.9237827
v -98.75766039 285.28157094 49.9126655
v -67.95027256 186.88811789 -28.63100832
v 68.93051267 189.81868935 55.63160665
v -4.7E-07 218.47406897 89.81694
v -4.7E-07 181.90977671 79.14566414
v -4.6E-07 342.86082623 51.08210223
v 98.75766039 285.28159478 49.9126655
v -68.93051267 189.81868935 55.63160665
v -98.75766039 285.28159478 49.9126655
vn 0 0.865 0.50177
vn -0.48391 0.86772 -0.11359
vn 0 0.65742 0.75352
vn 0.00336 -0.65546 0.75522
vn 0.04108 -0.57456 0.81743
vn 0.03607 0.56951 0.82119
vn -0.75047 0.45123 0.4829
vn -0.75 -0.43673 0.49676
vn 0.69098 -0.70786 -0.14655
vn 0.7758 -0.62812 -0.05997
vn -0.61862 -0.77894 0.10279
vn -0.67881 -0.73307 -0.04267
vn -0.70845 0.70549 -0.01965
vn -0.60077 0.79865 -0.03516
vn 0.73188 0.66086 -0.16618
vn 0.77449 0.61591 -0.14427
vn 0.83363 0.53424 -0.14014
vn 0.60229 -0.76099 -0.2411
vn -0.70825 -0.68121 -0.18528
vn -0.56949 0.82073 -0.0456
vn -0.00769 0.99996 -0.00461
vn -0.34567 0.00104 0.93836
vn 0.9397 0 0.342
vn -0.00424 -0.99999 -0.00336
vn -0.94293 -0.00577 -0.33293
vn 0.33257 0.00101 -0.94308
vn 0.24495 -0.80696 -0.53741
vn 0.80076 -0.23292 0.55185
vn -0.04471 -0.26109 0.96428
vn 0.9222 0.26903 -0.27779
vn 0.21235 0.75318 0.62259
vn -0.03607 0.56951 0.82119
vn -0.04242 -0.56801 0.82193
vn 0.00079 -0.84812 0.52981
vn -0.47524 -0.87275 -0.11158
vn -0.30024 -0.63778 0.70929
vn 0.35075 -0.70294 0.61874
vn 0.40518 0.66011 0.63252
vn -0.2928 0.60212 0.74278
vn 0.08991 -0.67236 -0.73474
vn 0.04056 0.71613 -0.69678
vn 0.29143 0.69026 0.66227
vn -0.60934 0.64316 -0.46374
vn -0.61832 -0.60458 -0.50216
vn 0.04575 0.72474 -0.6875
vn 0.79903 -0.37094 -0.47324
vn 0.00293 -0.94308 -0.33254
vn -0.79295 -0.38305 -0.47381
vn 0.00763 -0.96572 0.25947
vn -0.60349 0.40823 -0.68495
vn 0.59696 0.41766 -0.68498
vn 0.98265 0.17905 -0.04843
vn -0.00327 0.76433 -0.64482
vn -0.00314 0.98645 -0.16404
vn -0.77259 -0.03443 0.63397
vn -0.98441 0.16849 -0.05045
vn 0.00082 -0.79449 0.60728
vn 0.77208 -0.02948 0.63484
vn 0 0 1
vn -0.00217 0.75419 0.65665
vn 0 0.99726 0.07398
vn 0 -0.00705 0.99998
vn 0.99746 -0.0007 0.07129
vn 0 -0.99787 0.06525
vn 0 -0.95849 -0.28514
vn 0.95564 0.00089 -0.29454
vn 0 0.96031 -0.27894
vn 0.75353 0.5528 0.35583
vn 0.81678 0.52487 -0.23954
vn 0 0.99899 -0.04489
vn 0 0.96279 0.27025
vn 0.80195 -0.39104 0.45162
vn 0 0.30138 0.95351
vn 0 -0.30028 0.95385
vn 0.9492 -0.02103 -0.31398
vn 0.3954 -0.61044 0.68631
vn 0.56949 0.82073 -0.0456
vn -0.83363 0.53424 -0.14014
vn -0.77449 0.61591 -0.14427
vn 0.70845 0.70549 -0.01965
vn -0.60229 -0.76099 -0.2411
vn 0.70825 -0.68121 -0.18528
vn 0.67881 -0.73307 -0.04267
vn -0.69098 -0.70786 -0.14655
vn -0.73188 0.66086 -0.16618
vn 0.60077 0.79865 -0.03516
vn 0.00769 0.99996 -0.00461
vn -0.9397 0 0.342
vn 0.34567 0.00104 0.93836
vn 0.00424 -0.99999 -0.00336
vn -0.33257 0.00101 -0.94308
vn 0.94293 -0.00577 -0.33293
vn -0.23597 -0.80198 -0.54876
vn 0.04459 -0.25667 0.96547
vn -0.81404 -0.22752 0.53439
vn -0.90942 0.26634 -0.31942
vn -0.20216 0.7551 0.62366
vn 0.61862 -0.77894 0.10279
vn -0.7758 -0.62812 -0.05997
vn 0.47977 0.87005 -0.11332
vn 0.75047 0.45123 0.4829
vn 0.74863 -0.43679 0.49877
vn 0.50631 -0.85536 -0.10959
vn 0.61832 -0.60458 -0.50216
vn -0.08252 -0.67504 -0.73315
vn -0.04575 0.72474 -0.6875
vn 0.60934 0.64316 -0.46374
vn -0.0293 0.72143 -0.69186
vn -0.29143 0.69026 0.66227
vn -0.40518 0.66011 0.63252
vn -0.35113 -0.70307 0.61838
vn 0.30024 -0.63778 0.70929
vn 0.2928 0.60212 0.74278
vn 0.98441 0.16849 -0.05045
vn 0.79295 -0.38305 -0.47381
vn 0.60349 0.40823 -0.68495
vn 0.00327 0.76433 -0.64482
vn 0.00217 0.75419 0.65665
vn -0.77208 -0.02948 0.63484
vn 0.77259 -0.03443 0.63397
vn -0.00082 -0.79449 0.60728
vn 0.00314 0.98645 -0.16404
vn -0.98265 0.17905 -0.04843
vn -0.59696 0.41766 -0.68498
vn -0.00763 -0.96572 0.25947
vn -0.79903 -0.37094 -0.47324
vn -0.00293 -0.94308 -0.33254
vn -0.99746 -0.0007 0.07129
vn -0.95564 0.00089 -0.29454
vn -0.75353 0.5528 0.35583
vn -0.81678 0.52487 -0.23954
vn -0.80195 -0.39104 0.45162
vn -0.9492 -0.02103 -0.31398
vn -0.3954 -0.61044 0.68631
vn -0.7458 -0.66316 -0.06327
vn -0.12696 -0.98331 -0.13035
vn 0.40764 0.77833 0.47753
vn 0.25523 -0.96175 0.09949
vn -0.21131 -0.79508 -0.56851
vn 0.55972 -0.77265 0.29954
vn -0.40764 0.77833 0.47753
vn -0.25523 -0.96175 0.09949
vn 0.21131 -0.79508 -0.56851
vn -0.55972 -0.77265 0.29954
vn 0 -0.99998 -0.00583
vn 0.76855 0.4285 -0.4751
vn 0 0.87628 -0.4818
vn 0.75862 -0.45694 -0.46444
vn 0 -0.88637 -0.46298
vn -0.76855 0.4285 -0.4751
vn -0.75862 -0.45694 -0.46444
vn 0 -0.00043 -1
vn -0.5213 0.78996 -0.3228
vn -0.47193 0.54692 -0.69149
vn 0 0.17088 -0.98529
vn 0.5213 0.78996 -0.3228
vn 0.47193 0.54692 -0.69149
vn 0.7458 0.66316 0.06327
vn 0.12696 0.98331 0.13035
vn 0 -0.85237 -0.52294
vn -0.40764 -0.77833 -0.47753
vn -0.76512 -0.61189 -0.20045
vn -0.25523 0.96175 -0.09949
vn 0.21131 0.79508 0.56851
vn -0.55972 0.77265 -0.29954
vn 0.76512 -0.61189 -0.20045
vn 0.40764 -0.77833 -0.47753
vn 0.25523 0.96175 -0.09949
vn -0.21131 0.79508 0.56851
vn 0.55972 0.77265 -0.29954
vn 0 0.99998 0.00583
vn -1 0 0
vn -0.92302 -0.38475 0
vn 0 -0.38475 0.92302
vn 1 0 0
vn 0.92302 -0.38475 0
vn 0 -0.38475 -0.92302
vn 0 0 -1
vn 0 -1 0
vn 0.9502 0.31163 0
vn 0 0.31163 0.9502
vn 0 1 0
vn 0 0.31163 -0.9502
vn -0.9502 0.31163 0
vn 0.63868 -0.46008 -0.61677
vn 0 -0.99944 -0.03339
vn 0 -0.68997 -0.72384
vn 0 -0.95478 0.29731
vn 0.45947 -0.88432 0.08283
vn 0 -0.00278 -1
vn 0.15409 0.05881 -0.98631
vn 0 0.16325 -0.98659
vn 0.47475 -0.01868 -0.87992
vn -0.63868 -0.46008 -0.61677
vn -0.45947 -0.88432 0.08283
vn -0.15409 0.05881 -0.98631
vn -0.47475 -0.01868 -0.87992
vn 0.64539 -0.45397 -0.61432
vn 0 -0.99954 -0.03021
vn 0 -0.95335 0.30186
vn 0.46429 -0.88131 0.0879
vn 0 0.00079 -1
vn 0.15858 0.0615 -0.98543
vn 0 0.16868 -0.98567
vn 0.4793 -0.00897 -0.8776
vn -0.64539 -0.45397 -0.61432
vn -0.46429 -0.88131 0.0879
vn -0.15858 0.0615 -0.98543
vn -0.4793 -0.00897 -0.8776
vt 0.73774 0.76627
vt 0.60725 0.88882
vt 0.73852 0.89297
vt 0.69448 0.92229
vt 0.67068 0.90507
vt 0.65259 0.91152
vt 0.60896 0.76295
vt 0.6548 0.76405
vt 0.60693 0.88247
vt 0.76274 0.97892
vt 0.76274 0.9983
vt 0.78516 0.9983
vt 0.78516 0.97892
vt 0.77401 0.95892
vt 0.79339 0.95892
vt 0.79339 0.9988
vt 0.77401 0.9988
vt 0.75309 0.95942
vt 0.75309 0.97892
vt 0.76274 0.95942
vt 0.78516 0.95942
vt 0.79481 0.97892
vt 0.79481 0.95942
vt 0.2061 0.78936
vt 0.19778 0.78929
vt 0.20603 0.79768
vt 0.20603 0.78133
vt 0.21442 0.78942
vt 0.30714 0.70961
vt 0.35255 0.74843
vt 0.26859 0.74712
vt 0.19484 0.66466
vt 0.1269 0.66832
vt 0.13055 0.59818
vt 0.75451 0.95892
vt 0.75451 0.9988
vt 0.65822 0.92852
vt 0.73751 0.76392
vt 0.72182 0.95104
vt 0.64043 0.87945
vt 0.73768 0.78203
vt 0.72896 0.85155
vt 0.74339 0.84269
vt 0.7579 0.78158
vt 0.68823 0.85074
vt 0.66896 0.85035
vt 0.63906 0.88198
vt 0.64712 0.88115
vt 0.74113 0.86002
vt 0.73033 0.92206
vt 0.74323 0.92206
vt 0.6622 0.85435
vt 0.67234 0.85698
vt 0.67234 0.89752
vt 0.6622 0.89546
vt 0.68821 0.98797
vt 0.68844 0.94547
vt 0.64453 0.94526
vt 0.64429 0.98776
vt 0.6622 0.78883
vt 0.67234 0.79018
vt 0.67234 0.84257
vt 0.6622 0.83915
vt 0.68054 0.78117
vt 0.6979 0.90888
vt 0.67719 0.84177
vt 0.67834 0.85934
vt 0.66601 0.78073
vt 0.66909 0.92254
vt 0.60723 0.88081
vt 0.74113 0.76257
vt 0.60806 0.7636
vt 0.23925 0.69065
vt 0.25989 0.70968
vt 0.28053 0.69094
vt 0.14466 0.19014
vt 0.14495 0.30878
vt 0.0916 0.27659
vt 0.1977 0.27643
vt 0.27931 0.64799
vt 0.24029 0.64768
vt 0.04807 0.25342
vt 0.06618 0.18009
vt 0.01117 0.24764
vt 0.00703 0.17697
vt 0.21912 0.1063
vt 0.22335 0.17992
vt 0.14489 0.1063
vt 0.07059 0.1063
vt 0.27835 0.24752
vt 0.28158 0.18331
vt 0.24342 0.23943
vt 0.1442 0.26212
vt 0.1442 0.16035
vt 0.04498 0.23943
vt 0.09996 0.35378
vt 0.18843 0.35378
vt 0.17576 0.79446
vt 0.19888 0.77288
vt 0.18812 0.79446
vt 0.20138 0.79446
vt 0.9651 0.90138
vt 0.9651 0.91501
vt 0.94466 0.91501
vt 0.94466 0.90138
vt 0.60469 0.83682
vt 0.60616 0.7768
vt 0.66909 0.77819
vt 0.9651 0.88772
vt 0.94466 0.88772
vt 0.24117 0.25325
vt 0.12494 0.54881
vt 0.08138 0.55575
vt 0.08138 0.58993
vt 0.12392 0.58993
vt 0.14906 0.4836
vt 0.20631 0.59544
vt 0.21753 0.59544
vt 0.05262 0.65322
vt 0.077 0.54669
vt 0.18002 0.52849
vt 0.35242 0.66588
vt 0.75309 0.9983
vt 0.79481 0.9983
vt 0.1489 0.80574
vt 0.1465 0.81477
vt 0.13988 0.80818
vt 0.13991 0.81477
vt 0.13988 0.82136
vt 0.13345 0.8147
vt 0.1489 0.8238
vt -0.00106 0.58582
vt 0.09152 0.60687
vt 0.13079 0.82354
vt 0.13079 0.80581
vt 0.68053 0.7813
vt 0.68821 0.85086
vt 0.67716 0.84189
vt 0.66598 0.78085
vt 0.67831 0.85946
vt 0.7411 0.86014
vt 0.72894 0.85167
vt 0.74336 0.84281
vt 0.73031 0.92218
vt 0.69594 0.90983
vt 0.73766 0.78215
vt 0.7432 0.92218
vt 0.65141 0.88991
vt 0.62926 0.86882
vt 0.75787 0.7817
vt 0.24405 0.6481
vt 0.23885 0.69261
vt 0.28032 0.69228
vt 0.27512 0.64785
vt 0.22094 0.79446
vt 0.21312 0.79446
vt 0.9651 0.92865
vt 0.94466 0.92865
vt 0.9651 0.94231
vt 0.94466 0.94231
vt 0.25959 0.71384
vt 0.12066 0.62374
vt 0.08138 0.62411
vt 0.15652 0.72401
vt 0.07586 0.51553
vt 0.08932 0.56021
vt 0.04103 0.62252
vt 0.07115 0.54569
vt 0.18002 0.6624
vt 0.14712 0.65629
vt 0.20576 0.68297
vt 0.10933 0.74843
vt 0.10675 0.5116
vt 0.14783 0.47027
vt 0.01245 0.53526
vt 0.04132 0.63473
vt 0.11108 0.68678
vt 0.0258 0.72005
vt 0.07465 0.454
vt 0.11462 0.46815
vt 0.01245 0.65563
vt 0.04132 0.55616
vt 0.0258 0.47084
vt 0.11108 0.50411
vt 0.13 0.65812
vt 0.11235 0.58895
vt 0.14115 0.55485
vt 0.11462 0.72274
vt 0.12275 0.59544
vt 0.35375 0.83656
vt 0.35375 0.76108
vt 0.23627 0.76108
vt 0.23627 0.83656
vt 0.35375 0.92239
vt 0.23627 0.92239
vt 0.35375 0.9847
vt 0.23627 0.9971
vt 0.35334 0.91571
vt 0.23737 0.92037
vt 0.23495 0.9953
vt 0.35352 0.98223
vt 0.35363 0.83455
vt 0.23553 0.82999
vt 0.35268 0.75948
vt 0.23168 0.75831
vt 0.46017 0.85964
vt 0.39261 0.85964
vt 0.45992 0.80724
vt 0.46017 0.85964
vt 0.39261 0.85964
vt 0.52773 0.85964
vt 0.52773 0.85964
vt 0.12272 0.514
vt 0.11585 0.5254
vt 0.05601 0.48936
vt 0.06288 0.47795
vt 0.12958 0.5026
vt 0.06975 0.46655
vt 0.17998 0.53295
vt 0.17311 0.54436
vt 0.1859 0.55206
vt 0.16624 0.55576
vt 0.25958 0.63554
vt 0.2598 0.63221
vt 0.00289 0.1063
vt 0.2848 0.1191
vt 0.64695 0.29961
vt 0.7314 0.35418
vt 0.73033 0.29302
vt 0.73214 0.49471
vt 0.57524 0.43436
vt 0.69085 0.2942
vt 0.69085 0.27345
vt 0.69845 0.2937
vt 0.55584 0.25906
vt 0.56705 0.29382
vt 0.55071 0.27409
vt 0.69908 0.2937
vt 0.67362 0.27345
vt 0.69771 0.28089
vt 0.64573 0.29961
vt 0.57402 0.43436
vt 0.68325 0.2937
vt 0.53412 0.28671
vt 0.68201 0.28089
vt 0.7061 0.27345
vt 0.68065 0.2937
vt 0.58872 0.39706
vt 0.62065 0.3256
vt 0.5836 0.32362
vt 0.73019 0.28089
vt 0.72883 0.26808
vt 0.68338 0.26808
vt 0.14305 0.80351
vt 0.22749 0.85808
vt 0.22642 0.79692
vt 0.22824 0.99862
vt 0.07133 0.93826
vt 0.2022 0.79811
vt 0.2022 0.77736
vt 0.22766 0.79761
vt 0.05193 0.76297
vt 0.06314 0.79773
vt 0.0468 0.778
vt 0.22629 0.7848
vt 0.14182 0.80351
vt 0.07011 0.93826
vt 0.17674 0.79761
vt 0.03022 0.79062
vt 0.17811 0.7848
vt 0.08481 0.90097
vt 0.11675 0.8295
vt 0.07969 0.82752
vt 0.22492 0.77199
vt 0.17947 0.77199
vt 0.87738 0.29961
vt 0.96183 0.35418
vt 0.96076 0.29302
vt 0.96257 0.49471
vt 0.80567 0.43436
vt 0.87616 0.29961
vt 0.80445 0.43436
usemtl mat0
f 334/249/203 335/250/204 336/251/205
f 337/252/206 338/253/207 339/254/208
f 340/255/209 341/256/210 342/257/204
f 343/258/211 344/259/212 345/260/213
f 345/260/213 346/261/214 343/258/211
f 347/262/215 348/263/216 349/264/217
f 349/264/217 350/265/218 347/262/215
f 351/266/219 352/267/218 343/258/211
f 343/258/211 353/268/220 351/266/219
f 354/269/221 346/261/214 355/270/215
f 355/270/215 356/271/222 354/269/221
f 353/268/220 343/258/211 346/261/214
f 346/261/214 354/269/221 353/268/220
f 357/272/223 358/273/224 359/274/225
f 360/272/226 361/275/227 362/276/228
f 359/274/225 358/273/224 360/272/226
f 359/274/225 360/272/226 362/276/228
f 357/272/223 359/274/225 362/276/228
f 360/272/226 358/273/224 361/275/227
f 363/277/229 364/278/230 365/279/231
f 366/280/232 367/281/233 368/282/230
f 361/275/227 357/272/223 362/276/228
f 361/275/227 358/273/224 357/272/223
f 369/283/222 347/262/215 350/265/218
f 350/265/218 370/284/219 369/283/222
f 337/252/206 371/285/205 372/254/234
f 337/252/206 372/254/234 373/253/235
f 374/286/236 375/287/206 376/288/237
f 377/289/238 378/290/239 379/291/240
f 379/291/240 380/292/241 377/289/238
f 381/293/242 382/294/243 383/295/204
f 383/295/204 384/296/237 381/293/242
f 385/297/244 378/290/239 386/298/235
f 386/298/235 387/299/234 385/297/244
f 388/300/243 389/301/244 390/302/234
f 390/302/234 391/303/204 388/300/243
f 392/304/241 393/305/245 394/306/246
f 394/306/246 395/307/238 392/304/241
f 396/308/245 397/309/241 398/310/240
f 398/310/240 399/311/247 396/308/245
f 377/289/238 400/312/246 381/293/242
f 381/293/242 378/290/239 377/289/238
f 378/290/239 381/293/242 401/313/237
f 401/313/237 386/298/235 378/290/239
f 385/297/244 379/291/240 378/290/239
f 388/300/243 399/311/247 398/310/240
f 398/310/240 389/301/244 388/300/243
f 402/314/247 403/315/243 381/293/242
f 400/312/246 404/316/245 402/314/247
f 402/314/247 381/293/242 400/312/246
f 376/288/237 341/256/210 374/286/236
f 375/287/206 405/317/235 376/288/237
f 341/256/210 376/288/237 342/257/204
f 406/318/204 407/319/203 408/320/209
f 409/321/248 410/322/249 411/323/250
f 412/324/251 413/325/249 414/326/248
f 413/325/249 412/324/251 415/327/250
f 416/328/252 417/329/253 409/321/248
f 409/321/248 411/323/250 416/328/252
f 418/330/253 419/331/254 414/326/248
f 420/332/255 421/333/256 419/331/254
f 422/334/257 423/335/258 412/324/251
f 412/324/251 424/336/259 422/334/257
f 414/326/248 419/331/254 412/324/251
f 425/337/260 424/336/259 412/324/251
f 412/324/251 419/331/254 425/337/260
f 415/327/250 412/324/251 423/335/258
f 419/331/254 418/330/253 420/332/255
f 426/338/255 423/335/258 427/339/256
f 428/340/260 429/341/261 430/342/259
f 430/342/259 429/341/261 431/343/257
f 431/343/257 429/341/261 432/344/262
f 433/345/262 429/341/261 428/340/260
f 434/346/263 435/347/264 436/348/265
f 436/348/265 435/347/264 437/349/266
f 438/350/265 439/351/266 440/352/267
f 440/352/267 441/353/268 438/350/265
f 442/354/204 443/355/234 444/356/205
f 445/357/263 438/350/265 441/353/268
f 441/353/268 446/358/269 445/357/263
f 447/359/252 423/335/258 426/338/255
f 423/335/258 447/359/252 415/327/250
f 448/360/270 449/361/271 450/362/272
f 450/362/272 451/363/273 448/360/270
f 452/364/274 449/361/271 448/360/270
f 448/360/270 453/365/275 454/366/276
f 454/366/276 452/364/274 448/360/270
f 453/365/275 448/360/270 451/363/273
f 368/282/230 367/281/233 455/367/231
f 452/364/274 456/368/277 449/361/271
f 452/364/274 454/366/276 457/369/278
f 363/277/229 458/370/232 364/278/230
f 352/267/218 459/371/217 344/259/212
f 344/259/212 343/258/211 352/267/218
f 346/261/214 345/260/213 460/372/216
f 460/372/216 355/270/215 346/261/214
f 337/252/206 339/254/208 371/285/205
f 461/283/279 462/284/280 463/265/281
f 463/265/281 464/262/282 461/283/279
f 465/268/283 466/269/284 467/261/285
f 467/261/285 468/258/286 465/268/283
f 466/269/284 469/271/279 470/270/282
f 470/270/282 467/261/285 466/269/284
f 471/266/280 465/268/283 468/258/286
f 468/258/286 472/267/281 471/266/280
f 464/262/282 463/265/281 473/264/287
f 473/264/287 474/263/288 464/262/282
f 475/373/289 476/374/290 477/375/291
f 478/376/292 479/377/293 480/378/294
f 476/374/290 478/376/292 477/375/291
f 476/374/290 479/377/293 478/376/292
f 481/379/289 479/377/293 476/374/290
f 478/376/292 480/378/294 477/375/291
f 482/277/295 483/279/296 484/278/297
f 485/367/298 486/380/297 487/381/299
f 480/378/294 479/377/293 488/382/289
f 480/378/294 489/383/289 477/375/291
f 468/258/286 467/261/285 490/260/300
f 490/260/300 491/259/301 468/258/286
f 467/261/285 470/270/282 492/372/288
f 492/372/288 490/260/300 467/261/285
f 472/267/281 468/258/286 491/259/301
f 491/259/301 493/371/287 472/267/281
f 494/354/302 444/356/205 495/355/208
f 496/318/302 497/320/303 407/319/203
f 498/256/304 499/257/302 500/288/305
f 375/287/206 500/288/305 501/317/207
f 500/288/305 374/286/236 498/256/304
f 502/384/306 503/385/307 504/386/308
f 504/386/308 505/387/309 502/384/306
f 504/386/308 503/385/307 506/388/310
f 507/300/310 508/301/311 509/310/312
f 509/310/312 510/311/308 507/300/310
f 511/389/311 512/390/313 513/391/312
f 512/390/313 514/392/207 515/393/305
f 515/393/305 503/385/307 512/390/313
f 516/394/314 512/390/313 503/385/307
f 503/385/307 502/384/306 516/394/314
f 517/308/309 510/311/308 509/310/312
f 509/310/312 518/309/315 517/308/309
f 519/304/315 520/307/314 521/306/306
f 521/306/306 522/305/309 519/304/315
f 507/300/310 523/303/302 524/302/208
f 524/302/208 508/301/311 507/300/310
f 511/389/311 525/395/208 514/392/207
f 514/392/207 512/390/313 511/389/311
f 503/385/307 526/396/305 527/397/302
f 527/397/302 506/388/310 503/385/307
f 516/394/314 528/398/315 513/391/312
f 513/391/312 512/390/313 516/394/314
f 529/335/316 530/327/317 531/359/318
f 531/359/318 532/338/319 529/335/316
f 533/345/320 534/340/321 535/341/261
f 536/343/322 537/344/320 535/341/261
f 538/342/323 536/343/322 535/341/261
f 534/340/321 538/342/323 535/341/261
f 532/338/319 539/339/324 529/335/316
f 540/331/325 541/332/319 542/330/326
f 530/327/317 529/335/316 543/324/327
f 544/337/321 540/331/325 543/324/327
f 543/324/327 545/336/323 544/337/321
f 546/326/328 543/324/327 540/331/325
f 547/334/322 545/336/323 543/324/327
f 543/324/327 529/335/316 547/334/322
f 541/332/319 540/331/325 548/333/324
f 542/330/326 546/326/328 540/331/325
f 549/399/318 550/400/317 551/401/328
f 551/401/328 552/402/326 549/399/318
f 553/325/329 530/327/317 543/324/327
f 554/403/263 555/404/330 435/347/264
f 555/404/330 437/349/266 435/347/264
f 556/405/330 557/406/331 440/352/267
f 440/352/267 439/351/266 556/405/330
f 558/407/263 559/408/269 557/406/331
f 557/406/331 556/405/330 558/407/263
f 374/286/236 500/288/305 375/287/206
f 543/324/327 546/326/328 553/325/329
f 551/401/328 550/400/317 560/409/329
f 561/410/332 451/363/273 450/362/272
f 450/362/272 562/411/333 561/410/332
f 563/412/334 561/410/332 562/411/333
f 561/410/332 563/412/334 454/366/276
f 454/366/276 453/365/275 561/410/332
f 453/365/275 451/363/273 561/410/332
f 486/380/297 564/413/296 487/381/299
f 565/414/335 566/415/334 567/416/333
f 563/412/334 568/417/336 454/366/276
f 482/277/295 484/278/297 569/370/298
f 570/255/303 499/257/302 498/256/304
f 334/249/203 336/251/205 571/250/302
f 454/366/276 568/417/336 457/369/278
f 572/418/337 573/419/337 574/420/337
f 575/421/338 576/413/338 577/422/338
f 450/362/272 449/361/271 578/423/339
f 579/424/340 580/425/340 581/426/340
f 452/364/274 449/361/271 582/427/341
f 452/364/274 457/369/278 583/428/342
f 450/362/272 584/429/343 562/411/333
f 585/430/344 586/431/344 587/432/344
f 588/433/334 589/434/345 590/435/333
f 563/412/334 591/436/346 568/417/336
f 568/417/336 592/437/347 457/369/278
f 593/438/348 594/439/349 595/440/203
f 595/440/203 596/441/303 593/438/348
f 597/442/350 593/438/348 596/441/303
f 596/441/303 598/443/304 597/442/350
f 599/444/351 597/442/350 598/443/304
f 598/443/304 600/445/236 599/444/351
f 601/446/352 602/447/209 603/448/203
f 603/448/203 604/449/349 601/446/352
f 605/450/353 606/451/210 602/447/209
f 602/447/209 601/446/352 605/450/353
f 607/452/351 608/453/236 606/451/210
f 606/451/210 605/450/353 607/452/351
f 609/454/349 610/455/348 611/456/354
f 612/457/351 611/456/354 613/458/350
f 610/455/348 613/458/350 611/456/354
f 609/454/349 611/456/354 614/459/352
f 614/459/352 611/456/354 615/460/353
f 612/457/351 615/460/353 611/456/354
f 452/364/355 457/369/356 454/366/357
f 563/412/358 454/366/357 568/417/359
f 572/418/360 574/420/360 573/419/360
f 575/421/361 577/422/361 576/413/361
f 450/362/362 578/423/363 449/361/364
f 579/424/365 581/426/365 580/425/365
f 452/364/355 582/427/366 449/361/364
f 452/364/355 583/428/367 457/369/356
f 450/362/362 562/411/368 584/429/369
f 585/430/370 587/432/370 586/431/370
f 588/433/358 590/435/368 589/434/371
f 563/412/358 568/417/359 591/436/372
f 568/417/359 457/369/356 592/437/373
f 616/461/261 617/462/374 618/463/375
f 618/463/375 619/464/376 616/461/261
f 620/465/377 621/466/378 622/464/379
f 622/464/379 623/461/380 620/465/377
f 621/466/378 619/464/376 624/466/381
f 621/466/378 620/465/377 616/461/261
f 616/461/261 619/464/376 621/466/378
f 625/467/382 626/468/383 616/461/261
f 616/461/261 620/465/377 625/467/382
f 623/461/380 622/464/379 618/463/375
f 618/463/375 617/462/374 623/461/380
f 626/468/383 625/467/382 627/469/384
f 628/468/385 625/467/382 620/465/377
f 620/465/377 623/461/380 628/468/385
f 626/468/383 629/470/386 617/462/374
f 617/462/374 616/461/261 626/468/383
f 629/470/386 628/468/385 623/461/380
f 623/461/380 617/462/374 629/470/386
f 629/470/386 626/468/383 627/469/384
f 628/468/385 629/470/386 627/469/384
f 625/467/382 628/468/385 627/469/384
f 622/464/379 621/466/378 630/464/381
f 619/464/376 618/463/375 630/464/381
f 618/463/375 622/464/379 631/463/381
f 549/399/318 552/402/326 632/471/319
f 417/329/253 416/328/252 633/472/255
f 634/473/262 425/337/260 419/331/254
f 419/331/254 421/333/256 634/473/262
f 422/334/257 635/474/262 427/339/256
f 427/339/256 423/335/258 422/334/257
f 636/474/320 547/334/322 529/335/316
f 529/335/316 539/339/324 636/474/320
f 544/337/321 637/473/320 548/333/324
f 548/333/324 540/331/325 544/337/321
f 638/475/387 639/476/388 640/477/389
f 641/478/390 639/476/388 642/479/391
f 642/479/391 639/476/388 638/475/387
f 643/480/389 644/481/392 645/482/387
f 646/483/393 647/484/392 648/485/394
f 649/486/387 650/487/392 651/488/395
f 652/489/396 640/477/389 639/476/388
f 641/478/390 653/490/397 639/476/388
f 653/490/397 652/489/396 639/476/388
f 643/480/389 654/491/396 644/481/392
f 655/492/398 648/485/394 647/484/392
f 656/493/399 657/494/392 658/495/396
f 659/496/391 660/497/387 661/498/395
f 662/499/395 657/494/392 663/500/393
f 664/498/399 665/497/396 666/496/397
f 656/493/399 667/501/398 657/494/392
f 668/502/400 669/503/401 670/504/389
f 671/505/402 669/503/401 672/506/403
f 672/506/403 669/503/401 668/502/400
f 673/507/389 674/508/404 675/509/400
f 676/510/405 677/511/404 678/512/406
f 675/509/400 674/508/404 679/513/407
f 680/514/408 670/504/389 669/503/401
f 671/505/402 681/515/409 669/503/401
f 681/515/409 680/514/408 669/503/401
f 673/507/389 682/516/408 674/508/404
f 683/517/410 678/512/406 677/511/404
f 684/518/411 674/508/404 682/516/408
f 685/519/403 686/520/400 687/521/407
f 679/513/407 674/508/404 688/522/405
f 689/521/411 690/520/408 691/519/409
f 684/518/411 692/523/410 674/508/404
f 693/524/387 694/525/388 695/526/389
f 696/527/390 694/525/388 697/528/391
f 697/528/391 694/525/388 693/524/387
f 643/480/389 644/481/392 645/482/387
f 646/483/393 647/484/392 648/485/394
f 649/486/387 650/487/392 651/488/395
f 698/529/396 695/526/389 694/525/388
f 696/527/390 699/530/397 694/525/388
f 699/530/397 698/529/396 694/525/388
f 643/480/389 654/491/396 644/481/392
f 655/492/398 648/485/394 647/484/392
f 656/493/399 657/494/392 658/495/396
f 659/496/391 660/497/387 661/498/395
f 662/499/395 657/494/392 663/500/393
f 664/498/399 665/497/396 666/496/397
f 656/493/399 667/501/398 657/494/392
# Vertices: 366, normals: 209, texture coordinates: 282, faces: 315

